Coordinates
version=1
nRows=8
nColumns=46
inDegrees=yes

Units are S.I. units (second, meters, Newtons, ...)
Angles are in degrees.

endheader
time	pelvis_tilt	pelvis_list	pelvis_rotation	pelvis_tx	pelvis_ty	pelvis_tz	bb_angle	bb_tx	bb_ty	bb_tz	hip_flexion_r	hip_adduction_r	hip_rotation_r	knee_angle_r	knee_angle_r_beta	ankle_angle_r	subtalar_angle_r	mtp_angle_r	crank_angle_r	hip_flexion_l	hip_adduction_l	hip_rotation_l	knee_angle_l	knee_angle_l_beta	ankle_angle_l	subtalar_angle_l	mtp_angle_l	crank_angle_l	lumbar_extension	lumbar_bending	lumbar_rotation	arm_flex_r	arm_add_r	arm_rot_r	elbow_flex_r	pro_sup_r	wrist_flex_r	wrist_dev_r	arm_flex_l	arm_add_l	arm_rot_l	elbow_flex_l	pro_sup_l	wrist_flex_l	wrist_dev_l
      7.50000000	    -27.71904843	      7.22159857	      3.17639540	      0.41308874	      1.19115065	     -0.25109174	      0.00000000	      0.50000000	      0.00000000	      0.25000000	     32.03132356	    -12.52298632	    -12.55609008	     24.31629638	      0.42439943	    -11.36422378	      7.84850242	      0.00000000	      0.00000000	     82.35814469	     -1.57006142	     -1.51677245	    106.03905633	      1.85073067	    -21.55765791	     -5.26359244	      0.00000000	      0.00000000	    -61.94839216	     -8.22362058	     -6.45434123	     45.24561253	    -16.57481331	     12.61475575	     89.90327546	     56.82179438	      0.00000000	      0.00000000	     50.65862257	    -15.19069157	     19.78461607	     91.19301262	     54.73396725	      0.00000000	      0.00000000
      7.50500000	    -27.63403688	      7.08579069	      3.41435632	      0.41328231	      1.19180997	     -0.25172622	      0.00000000	      0.50000000	      0.00000000	      0.25000000	     31.77681498	    -12.72827817	    -13.06172977	     25.17068063	      0.43931125	    -11.89842984	      7.61858636	      0.00000000	      0.00000000	     82.96769438	     -1.22749216	     -1.38726151	    105.75142934	      1.84571063	    -21.36117140	     -5.57537881	      0.00000000	      0.00000000	    -62.25278405	     -8.15438194	     -6.70137725	     45.34419456	    -16.71135819	     12.64743554	     89.82615485	     56.82295588	      0.00000000	      0.00000000	     50.85116743	    -15.09760011	     19.64357594	     91.54279567	     54.77139474	      0.00000000	      0.00000000
      7.51000000	    -27.71306994	      6.91171086	      3.87583011	      0.41282184	      1.19235333	     -0.25313414	      0.00000000	      0.50000000	      0.00000000	      0.25000000	     31.86651607	    -13.03988465	    -13.60967835	     26.32878848	      0.45952405	    -12.45490050	      7.07796994	      0.00000000	      0.00000000	     83.69825707	     -0.61582522	     -1.33681566	    105.22556774	      1.83653261	    -21.63935687	     -6.55603526	      0.00000000	      0.00000000	    -62.43841531	     -7.78587842	     -7.12153638	     45.68432861	    -17.11373657	     13.14123194	     89.76776238	     56.90183006	      0.00000000	      0.00000000	     50.72668643	    -15.15614472	     19.32650310	     92.40467963	     54.87506035	      0.00000000	      0.00000000
      7.51500000	    -27.73716142	      6.75641211	      4.29648359	      0.41249854	      1.19325108	     -0.25437709	      0.00000000	      0.50000000	      0.00000000	      0.25000000	     32.07226961	    -13.35680798	    -13.99703715	     27.73280993	      0.48402884	    -13.22782364	      6.20433779	      0.00000000	      0.00000000	     84.18356753	     -0.03179628	     -1.25914485	    104.58106201	      1.82528387	    -21.44166563	     -7.16791895	      0.00000000	      0.00000000	    -62.71104776	     -7.42943493	     -7.46506374	     46.05295177	    -17.39795189	     13.47755027	     89.72492041	     56.95097144	      0.00000000	      0.00000000	     50.86508268	    -15.24758011	     19.15431180	     92.99990899	     54.94710203	      0.00000000	      0.00000000
      7.52000000	    -27.80459888	      6.57674846	      4.70701579	      0.41200919	      1.19416336	     -0.25573895	      0.00000000	      0.50000000	      0.00000000	      0.25000000	     32.53929394	    -13.66984146	    -14.20464841	     29.44624875	      0.51393399	    -14.13508317	      5.15693768	      0.00000000	      0.00000000	     84.59227331	      0.54237666	     -1.20877272	    103.83435882	      1.81225144	    -21.13911330	     -7.93166891	      0.00000000	      0.00000000	    -63.01418448	     -6.93954620	     -8.40051189	     47.29750807	    -17.53486926	     15.20637706	     88.95866301	     57.14285001	      0.00000000	      0.00000000	     50.29243578	    -16.14600535	     18.29724029	     94.72476752	     55.11177381	      0.00000000	      0.00000000
      7.52500000	    -27.83945321	      6.44096404	      5.28869869	      0.41127569	      1.19553223	     -0.25701881	      0.00000000	      0.50000000	      0.00000000	      0.25000000	     33.11303764	    -14.11219772	    -14.39984517	     31.38206090	      0.54772029	    -15.28290248	      3.83223587	      0.00000000	      0.00000000	     84.79490766	      1.25382972	     -1.19659654	    102.86658809	      1.79536065	    -20.72373289	     -8.44467758	      0.00000000	      0.00000000	    -63.38311796	     -6.45547017	     -8.75145313	     47.67195148	    -17.71600515	     15.21431385	     89.01388796	     57.16156485	      0.00000000	      0.00000000	     50.67287628	    -16.19403899	     18.27743744	     95.05081035	     55.15256605	      0.00000000	      0.00000000
      7.53000000	    -28.02701860	      6.29025780	      5.74156261	      0.41040483	      1.19655991	     -0.25831774	      0.00000000	      0.50000000	      0.00000000	      0.25000000	     34.08486947	    -14.46078092	    -14.19813168	     33.56516834	      0.58582270	    -16.81107398	      2.08972408	      0.00000000	      0.00000000	     85.06817439	      1.78611902	     -1.26388004	    101.84798385	      1.77758265	    -20.28050187	     -9.18773342	      0.00000000	      0.00000000	    -63.65472982	     -6.04707978	     -9.20526513	     48.04040535	    -18.03649594	     15.61712809	     89.22022977	     57.26098386	      0.00000000	      0.00000000	     50.84294075	    -16.58254063	     18.26521004	     95.69182276	     55.24425895	      0.00000000	      0.00000000
      7.53500000	    -28.24244392	      6.05595663	      6.18776062	      0.40949578	      1.19755253	     -0.25985851	      0.00000000	      0.50000000	      0.00000000	      0.25000000	     35.19930572	    -14.78919329	    -14.00370291	     35.84981921	      0.62569738	    -18.44931655	      0.60709266	      0.00000000	      0.00000000	     85.23283716	      2.35717269	     -1.16332071	    100.72716466	      1.75802067	    -19.46732346	     -9.60855230	      0.00000000	      0.00000000	    -63.85461886	     -5.50828152	     -9.52372072	     48.56350683	    -18.33568403	     16.03053923	     89.43484768	     57.36174212	      0.00000000	      0.00000000	     50.92519252	    -17.03422092	     18.16419353	     96.42859959	     55.33882476	      0.00000000	      0.00000000
